<?xml version="1.0" standalone="no"?>
<!DOCTYPE svg PUBLIC "-//W3C//DTD SVG 20010904//EN"
 "http://www.w3.org/TR/2001/REC-SVG-20010904/DTD/svg10.dtd">
<svg version="1.0" xmlns="http://www.w3.org/2000/svg"
 width="200.000000pt" height="200.000000pt" viewBox="0 0 200.000000 200.000000"
 preserveAspectRatio="xMidYMid meet">
<metadata>
Created by potrace 1.11, written by Peter Selinger 2001-2013
</metadata>
<g transform="translate(0.000000,200.000000) scale(0.100000,-0.100000)"
fill="#000000" stroke="none">
<path d="M738 1883 c-46 -29 -62 -80 -55 -181 l7 -89 -58 -23 c-68 -28 -118
-64 -136 -98 -13 -24 -19 -26 -91 -28 -83 -2 -109 -14 -149 -68 -20 -27 -21
-41 -23 -424 -1 -239 2 -409 8 -427 21 -63 73 -96 159 -99 23 -1 26 -6 32 -61
15 -121 65 -231 121 -266 24 -14 50 -19 101 -19 65 0 68 1 54 18 -32 35 -61
108 -79 196 -35 169 -12 364 57 483 13 23 24 44 24 47 0 10 -124 3 -144 -7
-33 -16 -53 -40 -80 -93 -28 -56 -56 -160 -56 -211 0 -31 -2 -33 -35 -33 -43
0 -77 15 -94 42 -18 29 -18 797 0 826 19 30 53 42 122 42 58 0 63 -2 74 -27
15 -32 88 -83 155 -108 45 -17 46 -18 37 -48 -14 -48 -11 -143 5 -182 38 -91
133 -91 258 1 l49 36 38 -30 c122 -98 228 -100 267 -5 16 36 18 161 3 184 -10
17 0 39 17 39 47 0 184 97 184 131 0 5 32 9 71 9 65 0 73 -2 100 -29 l29 -29
0 -397 0 -397 -29 -29 c-23 -23 -39 -29 -70 -29 -39 0 -41 1 -42 33 -4 94 -38
200 -84 258 -23 30 -65 57 -82 54 -7 -2 -20 -3 -28 -4 -36 -3 -97 -87 -125
-171 -22 -68 -31 -222 -18 -311 11 -71 49 -167 83 -207 79 -91 162 -53 220
102 13 35 27 89 30 122 4 32 9 62 11 65 2 4 22 7 44 7 48 1 94 25 124 65 21
28 21 37 21 442 0 402 -1 414 -21 441 -40 54 -66 66 -148 68 -69 2 -78 5 -93
27 -9 13 -26 32 -37 43 -23 20 -134 76 -152 76 -9 0 -9 11 -3 38 13 56 11 138
-5 176 -7 18 -26 43 -42 55 -24 19 -37 22 -76 18 -54 -7 -75 -17 -141 -71
l-48 -38 -27 23 c-15 13 -29 27 -32 31 -12 16 -117 58 -145 58 -16 0 -42 -8
-57 -17z m141 -69 c14 -9 38 -28 53 -42 l27 -25 -28 -33 c-16 -18 -34 -40 -39
-50 -11 -19 -130 -40 -144 -26 -12 12 -16 121 -7 158 15 54 70 61 138 18z
m372 0 c14 -17 17 -110 5 -159 -6 -25 -9 -26 -49 -20 -84 12 -92 16 -130 65
-42 55 -42 55 37 109 63 44 103 45 137 5z m-217 -155 c-6 -10 -74 -12 -74 -3
0 3 8 16 18 29 l17 23 22 -20 c12 -12 20 -25 17 -29z m60 -70 c20 -27 78 -133
79 -147 1 -19 -67 -147 -84 -158 -6 -3 -48 -6 -92 -6 -94 1 -97 3 -149 105
l-29 58 43 74 c24 41 50 76 58 78 19 5 170 1 174 -4z m-283 -49 c-18 -31 -20
-31 -30 -12 -18 34 -13 50 17 54 35 4 37 -3 13 -42z m416 24 c2 -7 -1 -22 -7
-34 -12 -22 -12 -22 -31 9 -10 17 -19 35 -19 40 0 13 51 0 57 -15z m-491 -72
c21 -56 21 -58 3 -100 -11 -24 -19 -50 -19 -59 0 -29 -101 7 -152 55 -37 34
-36 67 3 102 29 28 129 73 139 63 2 -2 14 -30 26 -61z m671 17 c63 -39 69 -83
19 -127 -40 -35 -123 -69 -136 -56 -5 5 -18 32 -29 61 -20 51 -20 53 -2 95 10
24 21 51 24 60 6 16 10 16 48 3 23 -8 57 -24 76 -36z m-180 -203 c-3 -6 -18
-13 -35 -14 l-30 -2 21 39 22 40 13 -25 c8 -14 11 -31 9 -38z m-414 25 c21
-36 21 -41 0 -41 -32 0 -45 15 -37 43 8 34 16 34 37 -2z m3 -96 c10 -2 29 -4
40 -4 23 -1 106 -99 97 -114 -3 -5 -33 -27 -66 -48 -103 -67 -150 -47 -151 64
0 91 9 119 37 112 13 -4 32 -8 43 -10z m442 -32 c21 -97 -3 -173 -54 -173 -30
0 -76 22 -127 62 l-37 30 19 26 c53 72 65 81 115 87 27 3 52 7 54 10 13 13 21
1 30 -42z m-234 -8 c-19 -30 -22 -30 -46 -8 -27 25 -22 33 22 33 l40 0 -16
-25z"/>
<path d="M850 842 c-25 -8 -71 -55 -91 -93 -41 -81 -58 -173 -54 -297 3 -119
16 -177 54 -248 45 -85 75 -104 163 -104 l68 0 -25 39 c-54 87 -80 205 -78
356 1 109 22 197 66 286 l33 65 -60 1 c-34 0 -68 -2 -76 -5z"/>
<path d="M1093 833 c-31 -16 -46 -34 -77 -93 -86 -164 -73 -443 28 -583 31
-42 67 -57 140 -57 l66 0 -29 45 c-101 159 -101 510 1 657 10 14 18 30 18 36
0 14 -117 10 -147 -5z"/>
</g>
</svg>
